<svg width="24" height="24" viewBox="0 0 24 24" fill="none" xmlns="http://www.w3.org/2000/svg">
<path d="M8.81013 21.8653L7.02563 18.8578L3.63713 18.1153L3.96788 14.627L1.67188 12L3.96788 9.37301L3.63713 5.88477L7.02563 5.14227L8.81013 2.13477L11.9986 3.48851L15.1871 2.13477L16.9716 5.14227L20.3601 5.88477L20.0294 9.37301L22.3254 12L20.0294 14.627L20.3601 18.1153L16.9716 18.8578L15.1871 21.8653L11.9986 20.5115L8.81013 21.8653ZM9.44863 19.95L11.9986 18.8693L14.5794 19.95L15.9986 17.55L18.7486 16.9193L18.4986 14.1L20.3486 12L18.4986 9.86927L18.7486 7.05002L15.9986 6.45002L14.5486 4.05002L11.9986 5.13076L9.41788 4.05002L7.99863 6.45002L5.24863 7.05002L5.49863 9.86927L3.64863 12L5.49863 14.1L5.24863 16.95L7.99863 17.55L9.44863 19.95ZM10.9486 15.2038L16.2524 9.90002L15.1986 8.81552L10.9486 13.0655L8.79863 10.9463L7.74488 12L10.9486 15.2038Z" fill="#4A4E69"/>
</svg>
