<svg width="24" height="24" viewBox="0 0 24 24" fill="none" xmlns="http://www.w3.org/2000/svg">
<g clip-path="url(#clip0_15566_68896)">
<path d="M5.74638 16.9999V9.49987H7.24638V16.9999H5.74638ZM11.2464 16.9999V9.49987H12.7464V16.9999H11.2464ZM2.76562 7.49987V6.07687L11.9964 1.55762L21.2271 6.07687V7.49987H2.76562ZM2.76562 20.4999V18.9999L13.4963 18.9999C13.4963 18.9999 13.3583 19.5857 13.4963 19.9999C13.5837 20.2618 13.75 20.4999 13.75 20.4999H2.76562ZM16.7464 13.9999V9.49987H18.2464V11.9999L16.7464 13.9999Z" fill="white"/>
<path d="M18.9549 21.1833C18.4817 21.7705 17.8714 22.1042 17.124 22.1845C16.3767 22.2649 15.7096 22.0685 15.1225 21.5953C14.5354 21.1222 14.2017 20.5119 14.1213 19.7645C14.0408 19.017 14.2372 18.3497 14.7104 17.7625L15.8482 16.3507C15.9283 16.2513 16.0291 16.1952 16.1505 16.1822C16.2719 16.1691 16.3824 16.2027 16.4818 16.2828C16.5812 16.3629 16.6374 16.4636 16.6503 16.585C16.6633 16.7063 16.6297 16.8166 16.5496 16.916L15.4113 18.3284C15.0951 18.7207 14.964 19.1672 15.0179 19.6679C15.0717 20.1687 15.2949 20.5773 15.6875 20.8937C16.0802 21.2102 16.5269 21.3415 17.0276 21.2877C17.5284 21.2339 17.9368 21.0109 18.253 20.6186L19.3913 19.2062C19.4714 19.1068 19.5721 19.0506 19.6935 19.0377C19.815 19.0246 19.9254 19.0581 20.0248 19.1382C20.1242 19.2184 20.1804 19.3191 20.1933 19.4404C20.2063 19.5618 20.1728 19.6721 20.0927 19.7715L18.9549 21.1833ZM17.9226 18.8383C17.8425 18.9377 17.7417 18.9939 17.6203 19.0069C17.4989 19.0199 17.3885 18.9864 17.2891 18.9063C17.1896 18.8262 17.1335 18.7254 17.1206 18.6041C17.1075 18.4828 17.1411 18.3724 17.2211 18.2731L19.4823 15.4674C19.5624 15.368 19.6631 15.3119 19.7845 15.2989C19.906 15.2858 20.0164 15.3193 20.1158 15.3994C20.2152 15.4796 20.2714 15.5803 20.2843 15.7017C20.2973 15.823 20.2638 15.9333 20.1837 16.0327L17.9226 18.8383ZM21.5566 17.955C21.4766 18.0544 21.3758 18.1106 21.2544 18.1236C21.133 18.1366 21.0225 18.1031 20.9231 18.0229C20.8237 17.9428 20.7675 17.8421 20.7545 17.7207C20.7416 17.5994 20.7751 17.4891 20.8552 17.3898L21.9935 15.9773C22.3097 15.585 22.4409 15.1385 22.387 14.6378C22.3332 14.137 22.11 13.7284 21.7173 13.412C21.3247 13.0956 20.878 12.9642 20.3772 13.0181C19.8765 13.0718 19.4681 13.2948 19.1519 13.6871L18.0136 15.0996C17.9335 15.1989 17.8327 15.2551 17.7113 15.2681C17.5899 15.2811 17.4795 15.2476 17.3801 15.1675C17.2807 15.0874 17.2245 14.9866 17.2116 14.8653C17.1985 14.744 17.2321 14.6336 17.3122 14.5343L18.45 13.1224C18.9232 12.5353 19.5335 12.2015 20.2809 12.1212C21.0281 12.0409 21.6953 12.2372 22.2824 12.7104C22.8695 13.1835 23.2032 13.7938 23.2836 14.5413C23.3641 15.2887 23.1677 15.9561 22.6945 16.5432L21.5566 17.955Z" fill="white"/>
</g>
<defs>
<clipPath id="clip0_15566_68896">
<rect width="24" height="24" fill="white"/>
</clipPath>
</defs>
</svg>
