<svg width="24" height="24" viewBox="0 0 24 24" fill="none" xmlns="http://www.w3.org/2000/svg">
<path d="M11.9793 20.5C9.81398 20.5 7.92681 19.7872 6.31781 18.3615C4.70881 16.9358 3.78256 15.1487 3.53906 13H5.06981C5.32231 14.727 6.09956 16.1588 7.40156 17.2952C8.7034 18.4318 10.2293 19 11.9793 19C13.9293 19 15.5835 18.3208 16.9418 16.9625C18.3001 15.6042 18.9793 13.95 18.9793 12C18.9793 10.05 18.3001 8.39583 16.9418 7.0375C15.5835 5.67917 13.9293 5 11.9793 5C10.887 5 9.86331 5.24267 8.90831 5.728C7.95315 6.21317 7.13065 6.88075 6.44081 7.73075H9.05631V9.23075H3.97931V4.15375H5.47931V6.523C6.29081 5.56533 7.26265 4.82208 8.39481 4.29325C9.52681 3.76442 10.7216 3.5 11.9793 3.5C13.1588 3.5 14.264 3.72308 15.2948 4.16925C16.3255 4.61542 17.2241 5.22183 17.9908 5.9885C18.7575 6.75517 19.3639 7.65392 19.8101 8.68475C20.2562 9.71542 20.4793 10.8205 20.4793 12C20.4793 13.1795 20.2562 14.2846 19.8101 15.3152C19.3639 16.3461 18.7575 17.2448 17.9908 18.0115C17.2241 18.7782 16.3255 19.3846 15.2948 19.8307C14.264 20.2769 13.1588 20.5 11.9793 20.5ZM14.9813 16.027L11.2583 12.3038V7H12.7581V11.6962L16.0351 14.973L14.9813 16.027Z" fill="#86889B"/>
</svg>
