<svg width="24" height="24" viewBox="0 0 24 24" fill="none" xmlns="http://www.w3.org/2000/svg">
<path d="M4.30762 4.5127H19.6924C20.1877 4.51273 20.61 4.68827 20.9609 5.03906C21.3117 5.39002 21.4873 5.81233 21.4873 6.30762V9.04785C21.4873 9.20928 21.4411 9.35206 21.3486 9.47656V9.47754C21.2562 9.60207 21.1325 9.687 20.9775 9.73242L20.9756 9.7334C20.5352 9.93812 20.1769 10.2416 19.9014 10.6445C19.6256 11.0478 19.4873 11.5 19.4873 12C19.4873 12.5 19.6256 12.9522 19.9014 13.3555C20.1769 13.7584 20.5352 14.0619 20.9756 14.2666V14.2676H20.9775C21.1325 14.313 21.2562 14.3979 21.3486 14.5225V14.5234C21.4411 14.6479 21.4873 14.7907 21.4873 14.9521V17.6924C21.4873 18.1877 21.3117 18.61 20.9609 18.9609C20.61 19.3117 20.1877 19.4873 19.6924 19.4873H4.30762C3.81233 19.4873 3.39002 19.3117 3.03906 18.9609C2.68827 18.61 2.51273 18.1877 2.5127 17.6924V14.9521C2.5127 14.7907 2.55889 14.6479 2.65137 14.5234V14.5225C2.74378 14.3979 2.8675 14.313 3.02246 14.2676L3.02441 14.2666C3.46478 14.0619 3.82309 13.7584 4.09863 13.3555C4.37442 12.9522 4.5127 12.5 4.5127 12C4.5127 11.5 4.37442 11.0478 4.09863 10.6445C3.82309 10.2416 3.46478 9.93812 3.02441 9.7334V9.73242H3.02246C2.8675 9.687 2.74378 9.60207 2.65137 9.47754V9.47656C2.55889 9.35206 2.5127 9.20927 2.5127 9.04785V6.30762C2.51273 5.81233 2.68827 5.39002 3.03906 5.03906C3.39002 4.68827 3.81233 4.51273 4.30762 4.5127ZM20.0068 15.4395C19.392 15.0738 18.9051 14.5879 18.5479 13.9814C18.1907 13.3751 18.0127 12.7145 18.0127 12C18.0127 11.2855 18.1907 10.6249 18.5479 10.0186C18.9051 9.41208 19.392 8.92615 20.0068 8.56055L20.0127 8.57129V6.30762C20.0127 6.2149 19.9821 6.13836 19.9219 6.07812C19.8616 6.01789 19.7851 5.98733 19.6924 5.9873H4.30762C4.2149 5.98733 4.13836 6.01789 4.07812 6.07812C4.01789 6.13836 3.98733 6.2149 3.9873 6.30762V8.5498H3.97559L3.99316 8.56055C4.60804 8.92615 5.0949 9.41208 5.45215 10.0186C5.80933 10.6249 5.9873 11.2855 5.9873 12C5.9873 12.7145 5.80933 13.3751 5.45215 13.9814C5.0949 14.5879 4.60804 15.0729 3.99316 15.4385L3.9873 15.4287V17.6924C3.98733 17.7851 4.01789 17.8616 4.07812 17.9219C4.13836 17.9821 4.2149 18.0127 4.30762 18.0127H19.6924C19.7851 18.0127 19.8616 17.9821 19.9219 17.9219C19.9821 17.8616 20.0127 17.7851 20.0127 17.6924V15.4502H20.0244L20.0068 15.4395Z" fill="white" stroke="white" stroke-width="0.025"/>
<path d="M15.7447 15.4038H7.94531V14.9979C7.94531 14.6448 8.04282 14.3203 8.23783 14.0244C8.43284 13.7284 8.70253 13.4979 9.04688 13.3328C9.49468 13.136 9.9483 12.9885 10.4077 12.8903C10.867 12.7919 11.346 12.7426 11.845 12.7426C12.3439 12.7426 12.823 12.7919 13.2822 12.8903C13.7417 12.9885 14.1953 13.136 14.6431 13.3328C14.9875 13.4979 15.2572 13.7284 15.4522 14.0244C15.6472 14.3203 15.7447 14.6448 15.7447 14.9979V15.4038Z" fill="white"/>
<path d="M13.1493 11.1485C12.7892 11.5086 12.3545 11.6887 11.845 11.6887C11.3355 11.6887 10.9008 11.5086 10.5407 11.1485C10.1805 10.7884 10.0005 10.3536 10.0005 9.84417C10.0005 9.33495 10.1805 8.90028 10.5407 8.54017C10.9008 8.18006 11.3355 8 11.845 8C12.3545 8 12.7892 8.18006 13.1493 8.54017C13.5095 8.90028 13.6895 9.33495 13.6895 9.84417C13.6895 10.3536 13.5095 10.7884 13.1493 11.1485Z" fill="white"/>
</svg>
