<svg width="20" height="20" viewBox="0 0 20 20" fill="none" xmlns="http://www.w3.org/2000/svg">
<path d="M9.9974 17.0827C7.97503 17.0827 6.28885 16.7971 4.93885 16.226C3.58899 15.655 2.91406 14.9416 2.91406 14.0858V5.83268C2.91406 5.02824 3.60531 4.34102 4.98781 3.77102C6.37031 3.20102 8.04017 2.91602 9.9974 2.91602C11.9546 2.91602 13.6245 3.20102 15.007 3.77102C16.3895 4.34102 17.0807 5.02824 17.0807 5.83268V14.0858C17.0807 14.9416 16.4058 15.655 15.0559 16.226C13.7059 16.7971 12.0198 17.0827 9.9974 17.0827ZM9.9974 7.46414C11.2121 7.46414 12.4352 7.2924 13.6666 6.94893C14.8978 6.60546 15.6112 6.23497 15.8068 5.83747C15.6165 5.42942 14.9105 5.04879 13.6889 4.6956C12.4672 4.34254 11.2367 4.16602 9.9974 4.16602C8.76017 4.16602 7.53392 4.33775 6.31865 4.68122C5.10337 5.0247 4.38781 5.39942 4.17198 5.80539C4.38253 6.22206 5.09274 6.60268 6.3026 6.94727C7.5126 7.29185 8.7442 7.46414 9.9974 7.46414ZM9.9974 11.6339C10.5755 11.6339 11.138 11.6062 11.6849 11.5506C12.2318 11.495 12.7545 11.4139 13.253 11.3071C13.7514 11.2003 14.218 11.0678 14.6528 10.9096C15.0877 10.7515 15.4803 10.5725 15.8307 10.3727V7.41602C15.4803 7.61574 15.0877 7.7947 14.6528 7.95289C14.218 8.11095 13.7514 8.24338 13.253 8.35018C12.7545 8.45713 12.2318 8.53838 11.6849 8.59393C11.138 8.64949 10.5755 8.67726 9.9974 8.67726C9.40878 8.67726 8.83531 8.6481 8.27698 8.58977C7.71878 8.53157 7.19184 8.44907 6.69615 8.34227C6.20045 8.23546 5.73865 8.10435 5.31073 7.94893C4.88281 7.79338 4.50059 7.61574 4.16406 7.41602V10.3727C4.50059 10.5725 4.88281 10.7502 5.31073 10.9056C5.73865 11.061 6.20045 11.1921 6.69615 11.2989C7.19184 11.4059 7.71878 11.4884 8.27698 11.5466C8.83531 11.6048 9.40878 11.6339 9.9974 11.6339ZM9.9974 15.8327C10.6736 15.8327 11.3377 15.7881 11.9895 15.6989C12.6411 15.6096 13.2341 15.4878 13.7682 15.3335C14.3024 15.1791 14.753 14.9998 15.1199 14.7958C15.487 14.5918 15.7239 14.3775 15.8307 14.1531V11.6227C15.4803 11.8225 15.0877 12.0015 14.6528 12.1596C14.218 12.3178 13.7514 12.4503 13.253 12.5571C12.7545 12.6639 12.2318 12.745 11.6849 12.8006C11.138 12.8562 10.5755 12.8839 9.9974 12.8839C9.40878 12.8839 8.83531 12.8548 8.27698 12.7966C7.71878 12.7384 7.19184 12.6559 6.69615 12.5489C6.20045 12.4421 5.73865 12.311 5.31073 12.1556C4.88281 12.0002 4.50059 11.8225 4.16406 11.6227V14.166C4.27087 14.3957 4.50566 14.6091 4.86844 14.8062C5.23108 15.0033 5.67948 15.1791 6.21365 15.3335C6.74795 15.4878 7.34309 15.6096 7.99906 15.6989C8.65503 15.7881 9.32115 15.8327 9.9974 15.8327Z" fill="#EAF4EF"/>
<circle cx="6.42188" cy="13.9297" r="4.375" fill="#26282C" stroke="white" stroke-width="1.25"/>
</svg>
