<svg width="24" height="24" viewBox="0 0 24 24" fill="none" xmlns="http://www.w3.org/2000/svg">
<path d="M13.8848 1.53223C14.6294 1.53229 15.2621 1.79241 15.7832 2.31348C16.3043 2.83459 16.5645 3.46739 16.5645 4.21191C16.5644 4.4325 16.5369 4.64214 16.4814 4.84082C16.4261 5.03925 16.3329 5.22451 16.2031 5.39648L16.1885 5.41699H21.4873V10.6035H19.8721V21.4873H4.12793V10.6035H2.5127V5.41699H7.69824L7.68066 5.39648C7.54092 5.2351 7.44569 5.05263 7.39551 4.85059C7.34519 4.64799 7.32032 4.43507 7.32031 4.21191C7.32031 3.46739 7.58048 2.83459 8.10156 2.31348C8.62269 1.79235 9.25544 1.53223 10 1.53223C10.3815 1.53223 10.7344 1.61256 11.0596 1.77246C11.3851 1.9328 11.6769 2.1469 11.9336 2.41504L11.9424 2.42383L11.9512 2.41406C12.2077 2.13583 12.4989 1.91956 12.8242 1.76465C13.1493 1.60966 13.5032 1.53223 13.8848 1.53223ZM5.60254 20.0127H11.2627V10.6035H5.60254V20.0127ZM12.7373 20.0127H18.3975V10.6035H12.7373V20.0127ZM3.9873 9.12793H11.2627V6.8916H3.9873V9.12793ZM12.7373 9.12793H20.0127V6.8916H12.7373V9.12793ZM10 3.00684C9.65902 3.00684 9.37256 3.12256 9.1416 3.35352C8.91069 3.58446 8.79492 3.87097 8.79492 4.21191C8.79495 4.55284 8.91067 4.83938 9.1416 5.07031C9.37255 5.30139 9.65905 5.41699 10 5.41699C10.3409 5.41699 10.6275 5.30139 10.8584 5.07031C11.0893 4.83938 11.205 4.55284 11.2051 4.21191C11.2051 3.87097 11.0893 3.58446 10.8584 3.35352C10.6274 3.12256 10.341 3.00684 10 3.00684ZM13.8848 3.00684C13.5438 3.00684 13.2573 3.1226 13.0264 3.35352C12.7954 3.58448 12.6797 3.87093 12.6797 4.21191C12.6797 4.55284 12.7954 4.83938 13.0264 5.07031C13.2573 5.30131 13.5439 5.41699 13.8848 5.41699C14.2256 5.41693 14.5121 5.30134 14.7432 5.07031C14.9741 4.83938 15.0898 4.55284 15.0898 4.21191C15.0898 3.87097 14.9741 3.58446 14.7432 3.35352C14.5121 3.12262 14.2256 3.0069 13.8848 3.00684Z" fill="#86889B" stroke="#86889B" stroke-width="0.025"/>
</svg>
