<svg width="40" height="40" viewBox="0 0 40 40" fill="none" xmlns="http://www.w3.org/2000/svg">
<path d="M17.632 27.09L28.8371 15.8849L27.0807 14.1285L17.632 23.5772L12.882 18.8272L11.1256 20.5836L17.632 27.09ZM20.0001 35.8336C17.8103 35.8336 15.7519 35.418 13.825 34.5869C11.8981 33.7558 10.2219 32.6279 8.79656 31.2032C7.37117 29.7784 6.24274 28.103 5.41127 26.177C4.5798 24.2509 4.16406 22.193 4.16406 20.0031C4.16406 17.8132 4.57962 15.7548 5.41073 13.8279C6.24184 11.901 7.36976 10.2249 8.79448 8.79949C10.2192 7.37411 11.8946 6.24567 13.8207 5.4142C15.7467 4.58273 17.8047 4.16699 19.9946 4.16699C22.1845 4.16699 24.2428 4.58255 26.1697 5.41366C28.0967 6.24477 29.7728 7.37269 31.1981 8.79741C32.6235 10.2222 33.752 11.8976 34.5834 13.8236C35.4149 15.7496 35.8307 17.8076 35.8307 19.9975C35.8307 22.1874 35.4151 24.2458 34.584 26.1727C33.7529 28.0996 32.625 29.7757 31.2002 31.2011C29.7755 32.6265 28.1001 33.7549 26.174 34.5864C24.248 35.4178 22.19 35.8336 20.0001 35.8336ZM19.9974 33.3336C23.7196 33.3336 26.8724 32.042 29.4557 29.4586C32.039 26.8753 33.3307 23.7225 33.3307 20.0003C33.3307 16.2781 32.039 13.1253 29.4557 10.542C26.8724 7.95862 23.7196 6.66695 19.9974 6.66695C16.2751 6.66695 13.1224 7.95862 10.539 10.542C7.95569 13.1253 6.66402 16.2781 6.66402 20.0003C6.66402 23.7225 7.95569 26.8753 10.539 29.4586C13.1224 32.042 16.2751 33.3336 19.9974 33.3336Z" fill="#2F945A"/>
</svg>
