<svg width="40" height="40" viewBox="0 0 40 40" fill="none" xmlns="http://www.w3.org/2000/svg">
<path d="M4.61927 16.6673C3.9026 16.6673 3.33594 16.1006 3.33594 15.384V11.534C3.33594 7.01732 7.01927 3.33398 11.5359 3.33398H15.3859C16.1026 3.33398 16.6693 3.90065 16.6693 4.61732C16.6693 5.33398 16.1026 5.90065 15.3859 5.90065H11.5359C8.41927 5.90065 5.9026 8.43398 5.9026 11.534V15.384C5.9026 16.1006 5.31927 16.6673 4.61927 16.6673Z" fill="white"/>
<path d="M35.3859 16.6673C34.6859 16.6673 34.1026 16.1006 34.1026 15.384V11.534C34.1026 8.41732 31.5693 5.90065 28.4693 5.90065H24.6193C23.9026 5.90065 23.3359 5.31732 23.3359 4.61732C23.3359 3.91732 23.9026 3.33398 24.6193 3.33398H28.4693C32.9859 3.33398 36.6693 7.01732 36.6693 11.534V15.384C36.6693 16.1006 36.1026 16.6673 35.3859 16.6673Z" fill="white"/>
<path d="M28.475 36.6661H26.1583C25.4583 36.6661 24.875 36.0995 24.875 35.3828C24.875 34.6828 25.4417 34.0995 26.1583 34.0995H28.475C31.5917 34.0995 34.1083 31.5661 34.1083 28.4661V26.1661C34.1083 25.4661 34.675 24.8828 35.3917 24.8828C36.0917 24.8828 36.675 25.4495 36.675 26.1661V28.4661C36.675 32.9828 32.9917 36.6661 28.475 36.6661Z" fill="white"/>
<path d="M15.3859 36.6673H11.5359C7.01927 36.6673 3.33594 32.984 3.33594 28.4673V24.6173C3.33594 23.9007 3.9026 23.334 4.61927 23.334C5.33594 23.334 5.9026 23.9007 5.9026 24.6173V28.4673C5.9026 31.584 8.43594 34.1006 11.5359 34.1006H15.3859C16.0859 34.1006 16.6693 34.6673 16.6693 35.384C16.6693 36.1006 16.1026 36.6673 15.3859 36.6673Z" fill="white"/>
<path d="M30.7776 18.7168H28.5109H11.5109H9.24427C8.5276 18.7168 7.96094 19.3001 7.96094 20.0001C7.96094 20.7001 8.5276 21.2835 9.24427 21.2835H11.5109H28.5109H30.7776C31.4943 21.2835 32.0609 20.7001 32.0609 20.0001C32.0609 19.3001 31.4943 18.7168 30.7776 18.7168Z" fill="white"/>
<path d="M11.5 23.2348V23.7848C11.5 26.5514 13.7333 28.7848 16.5 28.7848H23.5C26.2667 28.7848 28.5 26.5514 28.5 23.7848V23.2348C28.5 23.0348 28.35 22.8848 28.15 22.8848H11.85C11.65 22.8848 11.5 23.0348 11.5 23.2348Z" fill="white"/>
<path d="M11.5 16.7668V16.2168C11.5 13.4501 13.7333 11.2168 16.5 11.2168H23.5C26.2667 11.2168 28.5 13.4501 28.5 16.2168V16.7668C28.5 16.9668 28.35 17.1168 28.15 17.1168H11.85C11.65 17.1168 11.5 16.9668 11.5 16.7668Z" fill="white"/>
</svg>
