<svg width="24" height="24" viewBox="0 0 24 24" fill="none" xmlns="http://www.w3.org/2000/svg">
<path d="M10.981 21.4503C9.7785 21.3233 8.66192 20.9867 7.63125 20.4405C6.60042 19.8944 5.70742 19.1979 4.95225 18.3513C4.19708 17.5044 3.60483 16.5349 3.1755 15.4425C2.746 14.3502 2.53125 13.1976 2.53125 11.9848C2.53125 9.53611 3.33733 7.41245 4.9495 5.61378C6.56167 3.81511 8.5805 2.7837 11.006 2.51953V4.01953C8.99583 4.30286 7.33083 5.19711 6.011 6.70228C4.691 8.20728 4.031 9.96811 4.031 11.9848C4.031 14.0014 4.68933 15.7624 6.006 17.2675C7.32267 18.7727 8.981 19.6669 10.981 19.9503V21.4503ZM12.981 21.4503V19.9503C13.6977 19.8503 14.3852 19.6634 15.0435 19.3898C15.7018 19.1159 16.3143 18.7592 16.881 18.3195L17.985 19.404C17.2465 19.9695 16.4561 20.4237 15.6137 20.7665C14.7714 21.1095 13.8938 21.3374 12.981 21.4503ZM16.931 5.66953C16.3477 5.2362 15.7268 4.87786 15.0685 4.59453C14.4102 4.3112 13.7227 4.11953 13.006 4.01953V2.51953C13.9188 2.62603 14.7948 2.85228 15.634 3.19828C16.4732 3.54445 17.2568 4.00028 17.985 4.56578L16.931 5.66953ZM19.385 17.954L18.331 16.8848C18.7643 16.3181 19.1143 15.7056 19.381 15.0473C19.6477 14.3889 19.831 13.7014 19.931 12.9848H21.4618C21.3412 13.8976 21.1089 14.7778 20.7647 15.6253C20.4206 16.4728 19.9607 17.249 19.385 17.954ZM19.931 10.9848C19.831 10.2681 19.6477 9.58061 19.381 8.92228C19.1143 8.26395 18.7643 7.65145 18.331 7.08478L19.4042 5.99653C19.9671 6.71436 20.4225 7.49703 20.7705 8.34453C21.1185 9.19203 21.3489 10.0721 21.4618 10.9848H19.931Z" fill="#292B3A"/>
<path d="M13.0664 16.3953H12.1361V10.4462C12.1361 10.2204 12.1361 10.027 12.1361 9.86626C12.14 9.70164 12.1438 9.55234 12.1476 9.41836C12.1553 9.28054 12.1649 9.14081 12.1763 8.99917C12.0577 9.12167 11.9467 9.22695 11.8433 9.31499C11.7399 9.39922 11.6117 9.50449 11.4586 9.63082L10.4996 10.4003L10 9.75141L12.274 8H13.0664V16.3953Z" fill="black"/>
</svg>
