<svg width="20" height="20" viewBox="0 0 20 20" fill="none" xmlns="http://www.w3.org/2000/svg">
<path d="M9.15083 17.8752C8.14875 17.7694 7.21826 17.4889 6.35938 17.0338C5.50035 16.5786 4.75618 15.9983 4.12687 15.2927C3.49757 14.587 3.00403 13.7791 2.64625 12.8688C2.28833 11.9585 2.10938 10.998 2.10938 9.98732C2.10938 7.94676 2.78111 6.17704 4.12458 4.67815C5.46806 3.17926 7.15042 2.31975 9.17167 2.09961V3.34961C7.49653 3.58572 6.10903 4.33093 5.00917 5.58523C3.90917 6.8394 3.35917 8.30676 3.35917 9.98732C3.35917 11.6679 3.90778 13.1353 5.005 14.3896C6.10222 15.6439 7.48417 16.3891 9.15083 16.6252V17.8752ZM10.8175 17.8752V16.6252C11.4147 16.5419 11.9876 16.3862 12.5363 16.1582C13.0849 15.93 13.5953 15.6327 14.0675 15.2663L14.9875 16.17C14.3721 16.6413 13.7134 17.0197 13.0115 17.3054C12.3095 17.5913 11.5782 17.7812 10.8175 17.8752ZM14.1092 4.72461C13.6231 4.3635 13.1057 4.06489 12.5571 3.82878C12.0085 3.59266 11.4356 3.43294 10.8383 3.34961V2.09961C11.599 2.18836 12.329 2.3769 13.0283 2.66523C13.7276 2.95371 14.3807 3.33357 14.9875 3.80482L14.1092 4.72461ZM16.1542 14.9617L15.2758 14.0707C15.6369 13.5984 15.9286 13.088 16.1508 12.5394C16.3731 11.9908 16.5258 11.4179 16.6092 10.8207H17.8848C17.7844 11.5813 17.5908 12.3148 17.304 13.0211C17.0172 13.7273 16.6339 14.3742 16.1542 14.9617ZM16.6092 9.15398C16.5258 8.55676 16.3731 7.98384 16.1508 7.43523C15.9286 6.88662 15.6369 6.37621 15.2758 5.90398L16.1702 4.99711C16.6392 5.5953 17.0188 6.24753 17.3088 6.95378C17.5988 7.66003 17.7908 8.39343 17.8848 9.15398H16.6092Z" fill="#EAF4EF"/>
<path d="M10.8913 13.6621H10.1161V8.70454C10.1161 8.51632 10.1161 8.35522 10.1161 8.22123C10.1193 8.08405 10.1224 7.95964 10.1256 7.84798C10.132 7.73313 10.14 7.61669 10.1496 7.49865C10.0507 7.60074 9.95815 7.68847 9.87201 7.76184C9.78588 7.83203 9.67901 7.91976 9.5514 8.02503L8.75226 8.66626L8.33594 8.12553L10.2309 6.66602H10.8913V13.6621Z" fill="#EAF4EF"/>
</svg>
