<svg width="60" height="22" viewBox="0 0 60 22" fill="none" xmlns="http://www.w3.org/2000/svg">
<g clip-path="url(#clip0_13696_10682)">
<mask id="mask0_13696_10682" style="mask-type:luminance" maskUnits="userSpaceOnUse" x="0" y="-1" width="60" height="24">
<path d="M0 -0.00102043H59.7879V22.3887H0V-0.00102043Z" fill="white"/>
</mask>
<g mask="url(#mask0_13696_10682)">
<path d="M9.6228 12.2229C10.5437 13.3018 12.2488 15.2893 14.5055 17.918H16.4403C16.4711 17.918 16.4863 17.9057 16.4863 17.8811V17.6311L11.6585 11.8307C11.2698 11.3804 11.0754 11.1243 11.0754 11.0625V11.0438C11.865 11.0438 12.6922 10.8372 13.5562 10.4238C14.019 10.2386 14.5035 9.83431 15.0096 9.21084C15.3922 8.59377 15.6021 8.06626 15.639 7.62806H17.287C17.2993 7.62806 17.5891 7.20192 18.1572 6.35013C18.1572 6.33192 18.1417 6.31962 18.111 6.31322H15.5743C15.4569 5.76406 15.2347 5.2983 14.9077 4.91522H17.287C17.3549 4.85986 17.6509 4.42781 18.1757 3.61932V3.60087H9.26997C9.25152 3.60087 8.95824 4.02357 8.39062 4.86921V4.91522H10.742C11.1367 4.91522 11.581 4.99567 12.0751 5.15609C12.766 5.42797 13.232 5.80736 13.4728 6.29477V6.31322H9.80782C9.85481 6.40942 9.88901 6.51177 9.90722 6.62249C9.96209 6.95243 9.92543 7.28779 9.80167 7.62806H13.7041C13.7041 7.82538 13.6672 8.0168 13.5934 8.20183C13.118 9.46721 11.9051 10.0995 9.95495 10.0995C9.54136 10.0995 9.18042 10.0781 8.87188 10.0346L8.85343 10.0811V11.3125C8.85343 11.3177 9.02861 11.5256 9.3583 11.9129L9.6228 12.2229Z" fill="white"/>
<path d="M3.84832 10.767C4.72176 10.5593 5.422 10.3 5.94951 9.98775C6.6458 9.57096 7.15068 9.11111 7.46413 8.60943C7.77734 8.108 7.90971 7.65061 7.86026 7.23751C7.83 6.98655 7.72641 6.79242 7.54976 6.65563C7.37211 6.51932 7.1369 6.46863 6.84387 6.50357C6.23319 6.57665 5.62449 6.97868 5.01677 7.70942C4.40929 8.4404 4.01981 9.4595 3.84832 10.767ZM3.83823 11.2143C3.83184 11.5181 3.8402 11.7693 3.86407 11.9667C3.92779 12.4996 4.17063 12.9299 4.5921 13.2594C5.01381 13.5878 5.49409 13.7202 6.03242 13.656C6.46324 13.6045 6.86699 13.4673 7.24417 13.2426C7.62062 13.019 8.16486 12.5576 8.87641 11.8594L9.09637 12.0973C7.84648 13.6732 6.57765 14.5378 5.2911 14.6916C4.41766 14.7961 3.72628 14.599 3.21796 14.1016C2.70891 13.6041 2.41513 13.0229 2.33591 12.3588C2.22937 11.4672 2.39545 10.5217 2.83463 9.52249C3.27382 8.52307 3.87785 7.71508 4.64795 7.09801C5.41806 6.48069 6.24303 6.12 7.12238 6.01494C7.75643 5.93916 8.24162 6.01174 8.57771 6.23268C8.91356 6.45289 9.10276 6.74026 9.14459 7.09333C9.20438 7.59033 9.06364 8.08955 8.72312 8.59123C8.27287 9.24594 7.56427 9.81626 6.59659 10.3022C5.95566 10.628 5.0362 10.9318 3.83823 11.2143Z" fill="white"/>
<path d="M46.38 13.3633H44.4062L47.1511 3.58194H49.1248L46.38 13.3633Z" fill="white"/>
<path d="M45.3589 3.88845C45.2221 3.70318 45.0113 3.60894 44.7246 3.60894H33.8735L33.3357 5.5256H35.3094V5.52314H43.2073L42.6338 7.57118H34.7359V7.56626H32.7622L31.125 13.4023H33.0987L34.1993 9.48538H43.0767C43.3522 9.48538 43.6145 9.39262 43.8598 9.20588C44.1049 9.01938 44.2646 8.7881 44.3428 8.51376L45.4416 4.59606C45.5226 4.31114 45.4945 4.07495 45.3589 3.88845Z" fill="white"/>
<path d="M29.9758 12.7513C29.8661 13.139 29.5098 13.4062 29.1009 13.4062H18.9197C18.6429 13.4062 18.4365 13.3135 18.3012 13.127C18.1656 12.9388 18.1366 12.7092 18.2143 12.4349L20.6984 3.60793H22.6731L20.4543 11.4908H28.3559L30.5735 3.60793H32.5499L29.9758 12.7513Z" fill="white"/>
<path d="M52.5357 3.59884L55.034 8.50218L49.7812 13.4043L52.5357 3.59884Z" fill="#008B44"/>
<path d="M50.7816 3.59884L53.2789 8.50218L48.0234 13.4043L50.7816 3.59884Z" fill="#F37920"/>
<path d="M18.1757 15.9675H18.3701C18.6193 15.9675 18.6572 15.8449 18.6572 15.5408C18.6572 15.1312 18.5263 15.1312 18.2645 15.1312H18.1757V15.9675ZM17.3984 14.5313H18.2305C19.0838 14.5313 19.4344 14.675 19.4344 15.5578C19.4344 16.0518 19.3119 16.5673 18.6149 16.5673H18.1757V17.9062H17.3984V14.5313Z" fill="white"/>
<path d="M20.5194 15.8744H20.7096C20.9756 15.8744 20.9756 15.6971 20.9756 15.4773C20.9756 15.2409 20.9756 15.1056 20.6715 15.1056H20.5194V15.8744ZM19.7422 14.5311H20.7687C21.4613 14.5311 21.7528 14.7382 21.7528 15.3464C21.7528 15.7436 21.698 16.0012 21.2839 16.1279V16.1362C21.5585 16.1913 21.7361 16.3897 21.7361 16.6728V17.2683C21.7361 17.4922 21.7275 17.7965 21.8163 17.9062H21.0474C20.9586 17.7965 20.9586 17.4922 20.9586 17.2683V16.7277C20.9586 16.5333 20.8828 16.449 20.6631 16.449H20.5194V17.9062H19.7422V14.5311Z" fill="white"/>
<path d="M22.0938 14.5313H23.8214V15.1818H22.871V15.8535H23.7031V16.5041H22.871V17.256H23.8593V17.9062H22.0938V14.5313Z" fill="white"/>
<path d="M24.9882 15.9675H25.1826C25.4318 15.9675 25.4697 15.8449 25.4697 15.5408C25.4697 15.1312 25.3388 15.1312 25.077 15.1312H24.9882V15.9675ZM24.2109 14.5313H25.043C25.8963 14.5313 26.2469 14.675 26.2469 15.5578C26.2469 16.0518 26.1244 16.5673 25.4276 16.5673H24.9882V17.9062H24.2109V14.5313Z" fill="white"/>
<path d="M27.1486 16.7066H27.5371L27.3555 15.0549H27.3472L27.1486 16.7066ZM26.8361 14.5311H27.8668L28.5003 17.9062H27.685L27.6134 17.3064H27.0684L26.9882 17.9062H26.2109L26.8361 14.5311Z" fill="white"/>
<path d="M28.7266 14.5313H29.5038V17.9062H28.7266V14.5313Z" fill="white"/>
<path d="M30.6601 17.3317H30.7826C30.9895 17.3317 31.1078 17.2429 31.1078 17.0446V15.3929C31.1078 15.1944 30.9895 15.1056 30.7826 15.1056H30.6601V17.3317ZM29.8828 14.5311H31.0402C31.7035 14.5311 31.8851 14.9156 31.8851 15.4353V17.0402C31.8851 17.657 31.4501 17.9062 31.0402 17.9062H29.8828V14.5311Z" fill="white"/>
<path d="M34 16.1658H34.3294V15.8701C34.3294 15.7773 34.3294 15.6504 34.1648 15.6504C34 15.6504 34 15.7773 34 15.8701V16.1658ZM33.2734 15.9208C33.2734 15.6041 33.4383 15.1521 34.1648 15.1521C34.8912 15.1521 35.056 15.6041 35.056 15.9208V16.6643H34V17.243C34 17.336 34 17.4627 34.1648 17.4627C34.3294 17.4627 34.3294 17.336 34.3294 17.243V16.9052H35.056V17.1923C35.056 17.5092 34.8912 17.9609 34.1648 17.9609C33.4383 17.9609 33.2734 17.5092 33.2734 17.1923V15.9208Z" fill="white"/>
<path d="M35.3672 16.1658H36.4781V16.791H35.3672V16.1658Z" fill="white"/>
<path d="M36.6562 14.5313H37.4505L37.6616 16.9307H37.6699L37.9278 14.5313H38.7092L38.1347 17.9062H37.1715L36.6562 14.5313Z" fill="white"/>
<path d="M39.6913 17.0528C39.6913 17.1416 39.6913 17.3611 39.9152 17.3611C40.1391 17.3611 40.1391 17.1416 40.1391 17.0528V15.3844C40.1391 15.2702 40.1391 15.0759 39.9152 15.0759C39.6913 15.0759 39.6913 15.2702 39.6913 15.3844V17.0528ZM38.9141 15.4518C38.9141 14.7929 39.3365 14.476 39.9152 14.476C40.4939 14.476 40.9163 14.7929 40.9163 15.4518V16.9851C40.9163 17.585 40.5318 17.9609 39.9152 17.9609C39.2984 17.9609 38.9141 17.585 38.9141 16.9851V15.4518Z" fill="white"/>
<path d="M41.2578 14.5309H42.0351V16.9935C42.0351 17.1751 42.0351 17.3357 42.259 17.3357C42.4828 17.3357 42.4828 17.1751 42.4828 16.9935V14.5309H43.2601V16.9851C43.2601 17.585 42.8755 17.9609 42.259 17.9609C41.6421 17.9609 41.2578 17.585 41.2578 16.9851V14.5309Z" fill="white"/>
<path d="M43.6094 15.4518C43.6094 14.7929 44.0318 14.476 44.6105 14.476C45.1892 14.476 45.6117 14.7929 45.6117 15.4518V15.7645H44.8344V15.3842C44.8344 15.2702 44.8344 15.0759 44.6105 15.0759C44.3866 15.0759 44.3866 15.2702 44.3866 15.3842V17.0528C44.3866 17.1414 44.3866 17.3611 44.6105 17.3611C44.8344 17.3611 44.8344 17.1414 44.8344 17.0528V16.5585H45.6117V16.9851C45.6117 17.585 45.2271 17.9609 44.6105 17.9609C43.9937 17.9609 43.6094 17.585 43.6094 16.9851V15.4518Z" fill="white"/>
<path d="M45.9609 14.5313H46.7382V15.7942H47.186V14.5313H47.9632V17.9062H47.186V16.4701H46.7382V17.9062H45.9609V14.5313Z" fill="white"/>
<path d="M48.3047 14.5313H50.0324V15.1818H49.0819V15.8535H49.914V16.5041H49.0819V17.256H50.0703V17.9062H48.3047V14.5313Z" fill="white"/>
<path d="M51.1913 15.8744H51.3815C51.6475 15.8744 51.6475 15.6971 51.6475 15.4773C51.6475 15.2409 51.6475 15.1056 51.3434 15.1056H51.1913V15.8744ZM50.4141 14.5311H51.4405C52.1331 14.5311 52.4247 14.7382 52.4247 15.3464C52.4247 15.7436 52.3698 16.0012 51.9558 16.1279V16.1362C52.2303 16.1913 52.4077 16.3897 52.4077 16.6728V17.2683C52.4077 17.4922 52.3994 17.7965 52.4882 17.9062H51.7193C51.6305 17.7965 51.6305 17.4922 51.6305 17.2683V16.7277C51.6305 16.5333 51.5547 16.449 51.335 16.449H51.1913V17.9062H50.4141V14.5311Z" fill="white"/>
</g>
</g>
<defs>
<clipPath id="clip0_13696_10682">
<rect width="59.7879" height="22.3897" fill="white"/>
</clipPath>
</defs>
</svg>
